<svg xmlns="http://www.w3.org/2000/svg" xml:space="preserve" width="512" height="512" style="enable-background:new 0 0 512 512"><path fill="#192A32ff" fill-rule="evenodd" d="M68.316 267.985c0 107.334 87.012 194.346 194.345 194.346a194.339 194.339 0 0 0 176.206-112.307 24.3 24.3 0 0 1 22.51-14.305 24.3 24.3 0 0 1 22.442 14.405 25.043 25.043 0 0 1-.209 21.555A244.043 244.043 0 0 1 262.661 512c-134.76 0-244.014-109.249-244.014-244.015S127.9 23.971 262.661 23.971a243.341 243.341 0 0 1 178.14 77.25l2.35-76.881a25.107 25.107 0 1 1 50.19 1.537l-4.15 135.607a25.053 25.053 0 0 1-8.614 18.13 25.055 25.055 0 0 1-18.623 7.486l-135.607-4.151a25.107 25.107 0 1 1 1.536-50.191l76.587 2.342a193.789 193.789 0 0 0-141.809-61.461c-107.333 0-194.345 87.012-194.345 194.346z" data-original="#000000"/></svg>